<mxfile host="Electron" agent="Mozilla/5.0 (Macintosh; Intel Mac OS X 10_15_7) AppleWebKit/537.36 (KHTML, like Gecko) draw.io/24.7.17 Chrome/128.0.6613.36 Electron/32.0.1 Safari/537.36" version="24.7.17">
  <diagram name="reference-architecture" id="O9XdC3RRBetugcBpTLkq">
    <mxGraphModel dx="1242" dy="907" grid="1" gridSize="10" guides="1" tooltips="1" connect="1" arrows="1" fold="1" page="1" pageScale="1" pageWidth="1654" pageHeight="1169" math="0" shadow="0">
      <root>
        <mxCell id="LcAE4-p-ZAQXSCbZCqAu-0" />
        <mxCell id="LcAE4-p-ZAQXSCbZCqAu-1" parent="LcAE4-p-ZAQXSCbZCqAu-0" />
        <mxCell id="UxH-Qs45etIk6f_FiI_n-0" value="&lt;font color=&quot;#733432&quot;&gt;Unity Catalog&lt;/font&gt;" style="rounded=1;whiteSpace=wrap;html=1;fontSize=16;fillColor=#f8cecc;strokeColor=#b85450;arcSize=6;align=left;labelBackgroundColor=none;spacing=17;verticalAlign=top;spacingTop=-18;" parent="LcAE4-p-ZAQXSCbZCqAu-1" vertex="1">
          <mxGeometry x="360" y="530" width="1110" height="120" as="geometry" />
        </mxCell>
        <mxCell id="LcAE4-p-ZAQXSCbZCqAu-2" value="" style="endArrow=none;dashed=1;html=1;strokeColor=#0000FF;startArrow=none;exitX=0.018;exitY=0.704;exitDx=0;exitDy=0;exitPerimeter=0;entryX=0.994;entryY=0.743;entryDx=0;entryDy=0;entryPerimeter=0;labelBackgroundColor=none;" parent="LcAE4-p-ZAQXSCbZCqAu-1" source="LcAE4-p-ZAQXSCbZCqAu-3" target="LcAE4-p-ZAQXSCbZCqAu-3" edge="1">
          <mxGeometry width="50" height="50" relative="1" as="geometry">
            <mxPoint x="741" y="81" as="sourcePoint" />
            <mxPoint x="1051" y="81" as="targetPoint" />
            <Array as="points">
              <mxPoint x="320" y="91" />
              <mxPoint x="320" y="860" />
              <mxPoint x="1500" y="860" />
              <mxPoint x="1500" y="92" />
            </Array>
          </mxGeometry>
        </mxCell>
        <mxCell id="LcAE4-p-ZAQXSCbZCqAu-3" value="Azure" style="verticalLabelPosition=bottom;html=1;verticalAlign=top;align=center;strokeColor=none;fillColor=#00BEF2;shape=mxgraph.azure.cloud;labelBackgroundColor=none;" parent="LcAE4-p-ZAQXSCbZCqAu-1" vertex="1">
          <mxGeometry x="408.43000000000006" y="62" width="50" height="40" as="geometry" />
        </mxCell>
        <mxCell id="LcAE4-p-ZAQXSCbZCqAu-10" value="Storage FileSystem" style="aspect=fixed;html=1;points=[];align=center;image;fontSize=12;image=img/lib/azure2/general/Storage_Container.svg;labelBackgroundColor=none;" parent="LcAE4-p-ZAQXSCbZCqAu-1" vertex="1">
          <mxGeometry x="894.2200000000001" y="675.6500000000001" width="51.69" height="42" as="geometry" />
        </mxCell>
        <mxCell id="LcAE4-p-ZAQXSCbZCqAu-11" value="" style="endArrow=none;dashed=1;html=1;strokeColor=#0000FF;fillColor=#f8cecc;labelBackgroundColor=none;" parent="LcAE4-p-ZAQXSCbZCqAu-1" source="LcAE4-p-ZAQXSCbZCqAu-75" target="LcAE4-p-ZAQXSCbZCqAu-75" edge="1">
          <mxGeometry width="50" height="50" relative="1" as="geometry">
            <mxPoint x="343.4" y="721.5" as="sourcePoint" />
            <mxPoint x="343.4" y="676.5" as="targetPoint" />
            <Array as="points">
              <mxPoint x="360" y="747" />
              <mxPoint x="1470" y="749" />
              <mxPoint x="1470" y="660" />
              <mxPoint x="360" y="660" />
            </Array>
          </mxGeometry>
        </mxCell>
        <mxCell id="LcAE4-p-ZAQXSCbZCqAu-12" value="write/update&lt;br&gt;events" style="aspect=fixed;html=1;points=[];align=left;image;fontSize=12;image=img/lib/azure2/integration/Event_Grid_Subscriptions.svg;labelPosition=right;verticalLabelPosition=middle;verticalAlign=middle;labelBackgroundColor=none;" parent="LcAE4-p-ZAQXSCbZCqAu-1" vertex="1">
          <mxGeometry x="416.68" y="696.65" width="33.5" height="30" as="geometry" />
        </mxCell>
        <mxCell id="LcAE4-p-ZAQXSCbZCqAu-69" value="" style="sketch=0;aspect=fixed;html=1;points=[];align=left;image;fontSize=12;image=img/lib/mscae/Key.svg;labelBackgroundColor=none;opacity=80;labelPosition=right;verticalLabelPosition=middle;verticalAlign=middle;" parent="LcAE4-p-ZAQXSCbZCqAu-1" vertex="1">
          <mxGeometry x="326.21" y="95.13" width="18.6" height="30" as="geometry" />
        </mxCell>
        <mxCell id="LcAE4-p-ZAQXSCbZCqAu-75" value="ADLS Gen 2.0" style="aspect=fixed;html=1;points=[];align=left;image;fontSize=12;image=img/lib/mscae/Data_Lake.svg;labelBackgroundColor=none;labelPosition=right;verticalLabelPosition=top;verticalAlign=bottom;" parent="LcAE4-p-ZAQXSCbZCqAu-1" vertex="1">
          <mxGeometry x="341.19000000000005" y="686.65" width="38" height="50" as="geometry" />
        </mxCell>
        <mxCell id="LcAE4-p-ZAQXSCbZCqAu-95" value="Ingest" style="rounded=1;whiteSpace=wrap;html=1;fillColor=#ffe6cc;strokeColor=#d79b00;labelBackgroundColor=none;" parent="LcAE4-p-ZAQXSCbZCqAu-1" vertex="1">
          <mxGeometry x="418.88" y="140.5" width="100" height="32.25" as="geometry" />
        </mxCell>
        <mxCell id="LcAE4-p-ZAQXSCbZCqAu-96" value="" style="endArrow=none;dashed=1;html=1;strokeColor=#CC6600;startArrow=none;entryX=1;entryY=0.5;entryDx=0;entryDy=0;exitX=0;exitY=0.5;exitDx=0;exitDy=0;labelBackgroundColor=none;" parent="LcAE4-p-ZAQXSCbZCqAu-1" source="LcAE4-p-ZAQXSCbZCqAu-95" target="LcAE4-p-ZAQXSCbZCqAu-95" edge="1">
          <mxGeometry width="50" height="50" relative="1" as="geometry">
            <mxPoint x="142.0300000000001" y="-26.480000000000018" as="sourcePoint" />
            <mxPoint x="190.58000000000004" y="-26.519999999999982" as="targetPoint" />
            <Array as="points">
              <mxPoint x="348.88" y="156.76" />
              <mxPoint x="350" y="520" />
              <mxPoint x="590" y="520" />
              <mxPoint x="588.8800000000001" y="156.13" />
            </Array>
          </mxGeometry>
        </mxCell>
        <mxCell id="LcAE4-p-ZAQXSCbZCqAu-100" value="" style="endArrow=none;dashed=1;html=1;strokeColor=#000000;startArrow=none;exitX=0;exitY=0.5;exitDx=0;exitDy=0;exitPerimeter=0;entryX=1;entryY=0.5;entryDx=0;entryDy=0;entryPerimeter=0;labelBackgroundColor=none;" parent="LcAE4-p-ZAQXSCbZCqAu-1" source="LcAE4-p-ZAQXSCbZCqAu-146" target="LcAE4-p-ZAQXSCbZCqAu-146" edge="1">
          <mxGeometry width="50" height="50" relative="1" as="geometry">
            <mxPoint x="239.09043271311134" y="88.89832982502071" as="sourcePoint" />
            <mxPoint x="277.08956728688895" y="89.11600977243097" as="targetPoint" />
            <Array as="points">
              <mxPoint x="160" y="90" />
              <mxPoint x="160" y="860" />
              <mxPoint x="310" y="860" />
              <mxPoint x="310" y="89.75" />
            </Array>
          </mxGeometry>
        </mxCell>
        <mxCell id="LcAE4-p-ZAQXSCbZCqAu-146" value="" style="shape=cylinder3;whiteSpace=wrap;html=1;boundedLbl=1;backgroundOutline=1;size=7.60003662109375;fillColor=#f5f5f5;fontColor=#333333;strokeColor=#666666;labelBackgroundColor=none;" parent="LcAE4-p-ZAQXSCbZCqAu-1" vertex="1">
          <mxGeometry x="218.46000000000004" y="69.5" width="32.36" height="41" as="geometry" />
        </mxCell>
        <mxCell id="LC1OuyFL2lo_jGS1EShN-12" value="" style="endArrow=none;dashed=1;html=1;strokeColor=#007FFF;startArrow=none;exitX=0;exitY=0.5;exitDx=0;exitDy=0;entryX=1;entryY=0.5;entryDx=0;entryDy=0;labelBackgroundColor=none;" parent="LcAE4-p-ZAQXSCbZCqAu-1" source="I6eMV21CClMDfW5IqpgD-1" target="I6eMV21CClMDfW5IqpgD-1" edge="1">
          <mxGeometry width="50" height="50" relative="1" as="geometry">
            <mxPoint x="424.4000000000001" y="784.125" as="sourcePoint" />
            <mxPoint x="524.4000000000001" y="784.125" as="targetPoint" />
            <Array as="points">
              <mxPoint x="360" y="774" />
              <mxPoint x="360" y="848" />
              <mxPoint x="1470" y="848" />
              <mxPoint x="1470" y="778" />
            </Array>
          </mxGeometry>
        </mxCell>
        <mxCell id="LC1OuyFL2lo_jGS1EShN-13" value="Azure Monitor" style="aspect=fixed;html=1;points=[];align=center;image;fontSize=12;image=img/lib/azure2/management_governance/Monitor.svg;labelBackgroundColor=none;" parent="LcAE4-p-ZAQXSCbZCqAu-1" vertex="1">
          <mxGeometry x="568.19" y="780" width="44" height="44" as="geometry" />
        </mxCell>
        <mxCell id="LC1OuyFL2lo_jGS1EShN-14" value="Log Analytics" style="aspect=fixed;html=1;points=[];align=center;image;fontSize=12;image=img/lib/azure2/analytics/Log_Analytics_Workspaces.svg;labelBackgroundColor=none;" parent="LcAE4-p-ZAQXSCbZCqAu-1" vertex="1">
          <mxGeometry x="917" y="780" width="44" height="44" as="geometry" />
        </mxCell>
        <mxCell id="TCyqZ6ukZb-iW6ul-69j-0" value="Data Sources" style="text;html=1;strokeColor=none;fillColor=none;align=center;verticalAlign=middle;whiteSpace=wrap;rounded=0;fontSize=12;labelBackgroundColor=none;" parent="LcAE4-p-ZAQXSCbZCqAu-1" vertex="1">
          <mxGeometry x="191.39" y="110.5" width="86.5" height="30" as="geometry" />
        </mxCell>
        <mxCell id="I6eMV21CClMDfW5IqpgD-1" value="Management &amp;amp; Governance" style="rounded=1;whiteSpace=wrap;html=1;fontSize=12;fillColor=#dae8fc;strokeColor=#6c8ebf;labelBackgroundColor=none;" parent="LcAE4-p-ZAQXSCbZCqAu-1" vertex="1">
          <mxGeometry x="379.19" y="758" width="161.62" height="32" as="geometry" />
        </mxCell>
        <mxCell id="I6eMV21CClMDfW5IqpgD-2" value="Active Directory" style="image;aspect=fixed;html=1;points=[];align=center;fontSize=12;image=img/lib/azure2/identity/Azure_Active_Directory.svg;labelBackgroundColor=none;" parent="LcAE4-p-ZAQXSCbZCqAu-1" vertex="1">
          <mxGeometry x="1155.06" y="784" width="45.94" height="42" as="geometry" />
        </mxCell>
        <mxCell id="I6eMV21CClMDfW5IqpgD-8" value="Transform" style="rounded=1;whiteSpace=wrap;html=1;fillColor=#f5f5f5;strokeColor=#666666;labelBackgroundColor=none;fontColor=#333333;" parent="LcAE4-p-ZAQXSCbZCqAu-1" vertex="1">
          <mxGeometry x="701.65" y="140.5" width="100" height="32.25" as="geometry" />
        </mxCell>
        <mxCell id="I6eMV21CClMDfW5IqpgD-9" value="" style="endArrow=none;dashed=1;html=1;strokeColor=#999999;startArrow=none;entryX=1;entryY=0.5;entryDx=0;entryDy=0;exitX=0;exitY=0.5;exitDx=0;exitDy=0;labelBackgroundColor=none;" parent="LcAE4-p-ZAQXSCbZCqAu-1" source="I6eMV21CClMDfW5IqpgD-8" target="I6eMV21CClMDfW5IqpgD-8" edge="1">
          <mxGeometry width="50" height="50" relative="1" as="geometry">
            <mxPoint x="400.6500000000001" y="-26.490000000000023" as="sourcePoint" />
            <mxPoint x="449.20000000000005" y="-26.529999999999987" as="targetPoint" />
            <Array as="points">
              <mxPoint x="607.5" y="156.75" />
              <mxPoint x="608" y="520" />
              <mxPoint x="900" y="520" />
              <mxPoint x="900" y="157" />
            </Array>
          </mxGeometry>
        </mxCell>
        <mxCell id="I6eMV21CClMDfW5IqpgD-11" value="Delta Lake" style="shape=image;verticalLabelPosition=bottom;labelBackgroundColor=none;verticalAlign=top;aspect=fixed;imageAspect=0;image=https://delta.io/static/3bd8fea55ff57287371f4714232cd4ef/f3063/delta-lake-logo.png;fontSize=12;" parent="LcAE4-p-ZAQXSCbZCqAu-1" vertex="1">
          <mxGeometry x="395.67" y="549" width="40.21" height="39" as="geometry" />
        </mxCell>
        <mxCell id="I6eMV21CClMDfW5IqpgD-12" value="" style="endArrow=none;dashed=1;html=1;strokeColor=#0000FF;fillColor=#f8cecc;entryX=1;entryY=0.5;entryDx=0;entryDy=0;exitX=0;exitY=0.5;exitDx=0;exitDy=0;labelBackgroundColor=none;" parent="LcAE4-p-ZAQXSCbZCqAu-1" source="I6eMV21CClMDfW5IqpgD-11" target="I6eMV21CClMDfW5IqpgD-11" edge="1">
          <mxGeometry width="50" height="50" relative="1" as="geometry">
            <mxPoint x="354" y="741" as="sourcePoint" />
            <mxPoint x="354" y="691" as="targetPoint" />
            <Array as="points">
              <mxPoint x="370" y="568" />
              <mxPoint x="370" y="640" />
              <mxPoint x="1460" y="640" />
              <mxPoint x="1460" y="566" />
            </Array>
          </mxGeometry>
        </mxCell>
        <mxCell id="I6eMV21CClMDfW5IqpgD-13" value="bronze" style="shape=image;verticalLabelPosition=bottom;labelBackgroundColor=none;verticalAlign=top;aspect=fixed;imageAspect=0;image=https://delta.io/static/3bd8fea55ff57287371f4714232cd4ef/f3063/delta-lake-logo.png;fontSize=12;" parent="LcAE4-p-ZAQXSCbZCqAu-1" vertex="1">
          <mxGeometry x="520.45" y="576" width="42.27" height="41" as="geometry" />
        </mxCell>
        <mxCell id="I6eMV21CClMDfW5IqpgD-15" value="Key Vault" style="image;aspect=fixed;html=1;points=[];align=center;fontSize=12;image=img/lib/azure2/security/Key_Vaults.svg;labelBackgroundColor=none;" parent="LcAE4-p-ZAQXSCbZCqAu-1" vertex="1">
          <mxGeometry x="1395.96" y="784" width="40" height="40" as="geometry" />
        </mxCell>
        <mxCell id="I6eMV21CClMDfW5IqpgD-22" value="Enrich" style="rounded=1;whiteSpace=wrap;html=1;fillColor=#fff2cc;strokeColor=#d6b656;labelBackgroundColor=none;" parent="LcAE4-p-ZAQXSCbZCqAu-1" vertex="1">
          <mxGeometry x="1010" y="140.5" width="100" height="32.25" as="geometry" />
        </mxCell>
        <mxCell id="I6eMV21CClMDfW5IqpgD-23" value="" style="endArrow=none;dashed=1;html=1;strokeColor=#999900;startArrow=none;entryX=1;entryY=0.5;entryDx=0;entryDy=0;exitX=0;exitY=0.5;exitDx=0;exitDy=0;labelBackgroundColor=none;" parent="LcAE4-p-ZAQXSCbZCqAu-1" source="I6eMV21CClMDfW5IqpgD-22" target="I6eMV21CClMDfW5IqpgD-22" edge="1">
          <mxGeometry width="50" height="50" relative="1" as="geometry">
            <mxPoint x="713.1500000000001" y="-26.490000000000023" as="sourcePoint" />
            <mxPoint x="761.7" y="-26.529999999999987" as="targetPoint" />
            <Array as="points">
              <mxPoint x="920" y="156.75" />
              <mxPoint x="921" y="520" />
              <mxPoint x="1210" y="520" />
              <mxPoint x="1210" y="157" />
            </Array>
          </mxGeometry>
        </mxCell>
        <mxCell id="I6eMV21CClMDfW5IqpgD-25" value="silver" style="shape=image;verticalLabelPosition=bottom;labelBackgroundColor=none;verticalAlign=top;aspect=fixed;imageAspect=0;image=https://delta.io/static/3bd8fea55ff57287371f4714232cd4ef/f3063/delta-lake-logo.png;fontSize=12;" parent="LcAE4-p-ZAQXSCbZCqAu-1" vertex="1">
          <mxGeometry x="735.29" y="576" width="42.27" height="41" as="geometry" />
        </mxCell>
        <mxCell id="I6eMV21CClMDfW5IqpgD-26" value="gold" style="shape=image;verticalLabelPosition=bottom;labelBackgroundColor=none;verticalAlign=top;aspect=fixed;imageAspect=0;image=https://delta.io/static/3bd8fea55ff57287371f4714232cd4ef/f3063/delta-lake-logo.png;fontSize=12;" parent="LcAE4-p-ZAQXSCbZCqAu-1" vertex="1">
          <mxGeometry x="1249.74" y="576" width="42.27" height="41" as="geometry" />
        </mxCell>
        <mxCell id="I6eMV21CClMDfW5IqpgD-33" value="" style="shape=flexArrow;endArrow=classic;startArrow=classic;html=1;rounded=0;fontSize=12;startSize=8;endSize=8;curved=1;fillColor=#d5e8d4;strokeColor=#82b366;labelBackgroundColor=none;" parent="LcAE4-p-ZAQXSCbZCqAu-1" edge="1">
          <mxGeometry width="100" height="100" relative="1" as="geometry">
            <mxPoint x="914.5" y="675.65" as="sourcePoint" />
            <mxPoint x="915" y="600" as="targetPoint" />
          </mxGeometry>
        </mxCell>
        <mxCell id="I6eMV21CClMDfW5IqpgD-36" value="Azure VNet" style="verticalLabelPosition=bottom;html=1;verticalAlign=top;align=center;strokeColor=none;fillColor=#00BEF2;shape=mxgraph.azure.virtual_network;pointerEvents=1;fontSize=12;labelBackgroundColor=none;" parent="LcAE4-p-ZAQXSCbZCqAu-1" vertex="1">
          <mxGeometry x="726.65" y="788.25" width="50" height="27.500000000000004" as="geometry" />
        </mxCell>
        <mxCell id="I6eMV21CClMDfW5IqpgD-37" value="" style="shape=image;verticalLabelPosition=bottom;labelBackgroundColor=none;verticalAlign=top;aspect=fixed;imageAspect=0;image=https://d33wubrfki0l68.cloudfront.net/71c06092efb06fcf30ebecdfda4ff6514ae3112d/aa352/blog/parquet-file-format-big-data-r/parquet-logo.png;" parent="LcAE4-p-ZAQXSCbZCqAu-1" vertex="1">
          <mxGeometry x="869.9999999999999" y="670.0000000000001" width="40" height="26.65" as="geometry" />
        </mxCell>
        <mxCell id="I6eMV21CClMDfW5IqpgD-42" value="SQL Endpoint" style="aspect=fixed;html=1;points=[];align=center;image;fontSize=12;image=img/lib/mscae/Databricks.svg;labelBackgroundColor=none;" parent="LcAE4-p-ZAQXSCbZCqAu-1" vertex="1">
          <mxGeometry x="1249.74" y="452.14" width="44.28" height="42.5" as="geometry" />
        </mxCell>
        <mxCell id="I6eMV21CClMDfW5IqpgD-53" value="Serve" style="rounded=1;whiteSpace=wrap;html=1;fillColor=#dae8fc;strokeColor=#6c8ebf;labelBackgroundColor=none;" parent="LcAE4-p-ZAQXSCbZCqAu-1" vertex="1">
          <mxGeometry x="1300.96" y="140.5" width="100" height="32.25" as="geometry" />
        </mxCell>
        <mxCell id="I6eMV21CClMDfW5IqpgD-54" value="" style="endArrow=none;dashed=1;html=1;strokeColor=#007FFF;startArrow=none;entryX=1;entryY=0.5;entryDx=0;entryDy=0;exitX=0;exitY=0.5;exitDx=0;exitDy=0;labelBackgroundColor=none;" parent="LcAE4-p-ZAQXSCbZCqAu-1" source="I6eMV21CClMDfW5IqpgD-53" target="I6eMV21CClMDfW5IqpgD-53" edge="1">
          <mxGeometry width="50" height="50" relative="1" as="geometry">
            <mxPoint x="1013.1500000000001" y="148.38" as="sourcePoint" />
            <mxPoint x="1061.7" y="148.34000000000003" as="targetPoint" />
            <Array as="points">
              <mxPoint x="1230" y="157" />
              <mxPoint x="1230" y="520" />
              <mxPoint x="1470" y="520" />
              <mxPoint x="1470" y="157" />
            </Array>
          </mxGeometry>
        </mxCell>
        <mxCell id="gEyKVkVUw-G5Uj5i3CAT-8" value="Device Logs" style="outlineConnect=0;dashed=0;verticalLabelPosition=bottom;verticalAlign=top;align=center;html=1;shape=mxgraph.aws3.flow_logs;fillColor=#000000;gradientColor=none;fontSize=12;" parent="LcAE4-p-ZAQXSCbZCqAu-1" vertex="1">
          <mxGeometry x="203.89" y="328.99" width="60" height="60" as="geometry" />
        </mxCell>
        <mxCell id="gEyKVkVUw-G5Uj5i3CAT-10" value="Azure Event Hub" style="image;aspect=fixed;html=1;points=[];align=center;fontSize=12;image=img/lib/azure2/analytics/Event_Hubs.svg;" parent="LcAE4-p-ZAQXSCbZCqAu-1" vertex="1">
          <mxGeometry x="378.88" y="261.09" width="57" height="51.04" as="geometry" />
        </mxCell>
        <mxCell id="gEyKVkVUw-G5Uj5i3CAT-11" value="Combine Data" style="aspect=fixed;html=1;points=[];align=center;image;fontSize=12;image=img/lib/mscae/Databricks.svg;labelBackgroundColor=none;" parent="LcAE4-p-ZAQXSCbZCqAu-1" vertex="1">
          <mxGeometry x="514.99" y="261.09" width="53.2" height="51.06" as="geometry" />
        </mxCell>
        <mxCell id="gEyKVkVUw-G5Uj5i3CAT-12" value="Production IIoT Data" style="sketch=0;points=[[0,0,0],[0.25,0,0],[0.5,0,0],[0.75,0,0],[1,0,0],[0,1,0],[0.25,1,0],[0.5,1,0],[0.75,1,0],[1,1,0],[0,0.25,0],[0,0.5,0],[0,0.75,0],[1,0.25,0],[1,0.5,0],[1,0.75,0]];outlineConnect=0;fontColor=#232F3E;fillColor=#000000;strokeColor=#ffffff;dashed=0;verticalLabelPosition=bottom;verticalAlign=top;align=center;html=1;fontSize=12;fontStyle=0;aspect=fixed;shape=mxgraph.aws4.resourceIcon;resIcon=mxgraph.aws4.lookout_for_equipment;" parent="LcAE4-p-ZAQXSCbZCqAu-1" vertex="1">
          <mxGeometry x="203.89" y="197.25" width="60" height="60" as="geometry" />
        </mxCell>
        <mxCell id="gEyKVkVUw-G5Uj5i3CAT-13" value="" style="endArrow=classic;html=1;strokeWidth=2;strokeColor=#00994D;labelBackgroundColor=none;" parent="LcAE4-p-ZAQXSCbZCqAu-1" source="gEyKVkVUw-G5Uj5i3CAT-10" target="gEyKVkVUw-G5Uj5i3CAT-11" edge="1">
          <mxGeometry width="50" height="50" relative="1" as="geometry">
            <mxPoint x="1348.88" y="232.13" as="sourcePoint" />
            <mxPoint x="1378.88" y="140.13" as="targetPoint" />
            <Array as="points" />
          </mxGeometry>
        </mxCell>
        <mxCell id="gEyKVkVUw-G5Uj5i3CAT-17" value="Product IoT Data" style="sketch=0;points=[[0,0,0],[0.25,0,0],[0.5,0,0],[0.75,0,0],[1,0,0],[0,1,0],[0.25,1,0],[0.5,1,0],[0.75,1,0],[1,1,0],[0,0.25,0],[0,0.5,0],[0,0.75,0],[1,0.25,0],[1,0.5,0],[1,0.75,0]];outlineConnect=0;fontColor=#232F3E;fillColor=#000000;strokeColor=#ffffff;dashed=0;verticalLabelPosition=bottom;verticalAlign=top;align=center;html=1;fontSize=12;fontStyle=0;aspect=fixed;shape=mxgraph.aws4.resourceIcon;resIcon=mxgraph.aws4.internet_of_things;" parent="LcAE4-p-ZAQXSCbZCqAu-1" vertex="1">
          <mxGeometry x="204.64000000000001" y="460" width="60" height="60" as="geometry" />
        </mxCell>
        <mxCell id="gEyKVkVUw-G5Uj5i3CAT-19" value="APIs" style="sketch=0;points=[[0,0,0],[0.25,0,0],[0.5,0,0],[0.75,0,0],[1,0,0],[0,1,0],[0.25,1,0],[0.5,1,0],[0.75,1,0],[1,1,0],[0,0.25,0],[0,0.5,0],[0,0.75,0],[1,0.25,0],[1,0.5,0],[1,0.75,0]];outlineConnect=0;fontColor=#232F3E;fillColor=#000000;strokeColor=#ffffff;dashed=0;verticalLabelPosition=bottom;verticalAlign=top;align=center;html=1;fontSize=12;fontStyle=0;aspect=fixed;shape=mxgraph.aws4.resourceIcon;resIcon=mxgraph.aws4.cloud_control_api;" parent="LcAE4-p-ZAQXSCbZCqAu-1" vertex="1">
          <mxGeometry x="203.89" y="590" width="60" height="60" as="geometry" />
        </mxCell>
        <mxCell id="g3JtSoTKQPr87EbilQ1k-0" value="" style="endArrow=classic;html=1;strokeWidth=2;strokeColor=#00994D;labelBackgroundColor=none;exitX=1;exitY=0.5;exitDx=0;exitDy=0;exitPerimeter=0;" parent="LcAE4-p-ZAQXSCbZCqAu-1" source="gEyKVkVUw-G5Uj5i3CAT-12" target="gEyKVkVUw-G5Uj5i3CAT-10" edge="1">
          <mxGeometry width="50" height="50" relative="1" as="geometry">
            <mxPoint x="446" y="297" as="sourcePoint" />
            <mxPoint x="519" y="297" as="targetPoint" />
            <Array as="points">
              <mxPoint x="330" y="227" />
              <mxPoint x="330" y="287" />
            </Array>
          </mxGeometry>
        </mxCell>
        <mxCell id="g3JtSoTKQPr87EbilQ1k-2" value="" style="endArrow=classic;html=1;strokeWidth=2;strokeColor=#00994D;labelBackgroundColor=none;exitX=1;exitY=0.5;exitDx=0;exitDy=0;exitPerimeter=0;" parent="LcAE4-p-ZAQXSCbZCqAu-1" source="gEyKVkVUw-G5Uj5i3CAT-8" target="gEyKVkVUw-G5Uj5i3CAT-10" edge="1">
          <mxGeometry width="50" height="50" relative="1" as="geometry">
            <mxPoint x="274" y="237" as="sourcePoint" />
            <mxPoint x="389" y="297" as="targetPoint" />
            <Array as="points">
              <mxPoint x="330" y="360" />
              <mxPoint x="330" y="287" />
            </Array>
          </mxGeometry>
        </mxCell>
        <mxCell id="g3JtSoTKQPr87EbilQ1k-3" value="" style="endArrow=classic;html=1;strokeWidth=2;strokeColor=#00994D;labelBackgroundColor=none;exitX=1;exitY=0.5;exitDx=0;exitDy=0;exitPerimeter=0;" parent="LcAE4-p-ZAQXSCbZCqAu-1" source="gEyKVkVUw-G5Uj5i3CAT-17" target="gEyKVkVUw-G5Uj5i3CAT-10" edge="1">
          <mxGeometry width="50" height="50" relative="1" as="geometry">
            <mxPoint x="274" y="369" as="sourcePoint" />
            <mxPoint x="389" y="297" as="targetPoint" />
            <Array as="points">
              <mxPoint x="330" y="490" />
              <mxPoint x="330" y="287" />
            </Array>
          </mxGeometry>
        </mxCell>
        <mxCell id="g3JtSoTKQPr87EbilQ1k-4" value="" style="endArrow=classic;html=1;strokeWidth=2;strokeColor=#00994D;labelBackgroundColor=none;exitX=1;exitY=0.5;exitDx=0;exitDy=0;exitPerimeter=0;" parent="LcAE4-p-ZAQXSCbZCqAu-1" source="gEyKVkVUw-G5Uj5i3CAT-19" target="gEyKVkVUw-G5Uj5i3CAT-10" edge="1">
          <mxGeometry width="50" height="50" relative="1" as="geometry">
            <mxPoint x="275" y="500" as="sourcePoint" />
            <mxPoint x="389" y="297" as="targetPoint" />
            <Array as="points">
              <mxPoint x="330" y="620" />
              <mxPoint x="330" y="287" />
            </Array>
          </mxGeometry>
        </mxCell>
        <mxCell id="g3JtSoTKQPr87EbilQ1k-5" value="Feature Engineering" style="aspect=fixed;html=1;points=[];align=center;image;fontSize=12;image=img/lib/mscae/Databricks.svg;labelBackgroundColor=none;" parent="LcAE4-p-ZAQXSCbZCqAu-1" vertex="1">
          <mxGeometry x="653.09" y="257.25" width="53.2" height="51.06" as="geometry" />
        </mxCell>
        <mxCell id="g3JtSoTKQPr87EbilQ1k-6" value="Training" style="aspect=fixed;html=1;points=[];align=center;image;fontSize=12;image=img/lib/mscae/Databricks.svg;labelBackgroundColor=none;" parent="LcAE4-p-ZAQXSCbZCqAu-1" vertex="1">
          <mxGeometry x="804.74" y="257.25" width="53.2" height="51.06" as="geometry" />
        </mxCell>
        <mxCell id="g3JtSoTKQPr87EbilQ1k-7" value="Serving" style="shape=image;verticalLabelPosition=bottom;labelBackgroundColor=default;verticalAlign=top;aspect=fixed;imageAspect=0;image=data:image/png,iVBORw0KGgoAAAANSUhEUgAAAhAAAADMCAMAAAAVvWrGAAAABGdBTUEAALGPC/xhBQAAAAFzUkdCAK7OHOkAAAFHUExURQAAAEDP70DP3wCP3wAAAELO7wCc5gAAAEDH70DH5wCX3wCP3wAAAEDF70DF6gCV5ACV3wCP3wAAAETH60DH6wCT4wCT3wAAAEPJ7EDJ7EPG7ACT4gCT3wAAAEPM7wOW5AAAAELH7ACS4gCS3wAAAEPK7wKV4wAAAETI60LI60LG7ULG6wCU4QCS4QAAAETL7wKV4wAAAETH60LH6wCT4QAAAETJ7ULJ7wKU4gCU4gAAAEPI7ELI7AKT3wCT4QAAAEPK7ULK7EPI7QKV4gKU4gCV4gCU4gAAAEPH7EHH7ACT4QAAAEPJ7gGV4gCV4gGT4gCT4gAAAACU4UPK7kPK7AGU4gCU4gAAAEPK7UPJ7QGU4wGU4QCU4QAAAEPJ7kPJ7ULJ7UPI7QGV4gGU4gAAAEPJ7ULJ7QGU4gGT4gAAAEPJ7QGU4gAAADse0BIAAABqdFJOUwAQEBAQHx8fICAgICAwMDAwMDBAQEBAQFBQUFBQUF9fX2BgYGBvb29wcHBwcHBwf39/gICAgI+Pj4+PkJCQkJCfn5+fn5+fn6CgoKCvr6+vr6+wv7+/v7/Pz8/Pz8/f39/f39/f7+/v7+/H8IULAAAOsElEQVR42u2d7X/TyBHHlchNSeRSE7BD69A2FuWuhxPSIq4p1/raxg6t4chBUFJsUuBksGP7/3/dT8iDJe3T7EhyvdL8XsLKsXe/mv3t7GhlWSQSiUQikUgkEolEIpFIJBKJRCKRSKSF1Nra2ppN3UCyftnY+yEYTS4V9P297Sr1SkFlN/avUQhr5Neoc4qn6h6Xhi/apO4pHA7+RCKHOqhYcg5lOEz61EPF0oORlIdJi7qoUF5SHh7IQhRtughUPEwoI1Eg3VLzQBaiSDyMlDyQhaD5IipKSxEPZCGKKR/CwzH1U1G0C+Fh4lFHFWXCAPFAFqIwkhmI0XHH23bd7W4woY4qiFyxa9hemzVbo54qeIA4pjmCAsRMAeFAASKclaSkAwUIWmKSBDkp4oFyELSLRRLNGAH5B5oxqJSWdC6bw8MBdUtxVacAQQqrRQGCpLAQFCCKLCqDIYVVYYFoUK8UWE2aMUhhtWnGIIXVw2etq3FRb5ovG1846dBjXYuopycx/Vzr8ir+2Ys6pS8WUSfTmPSAYD1lAL20RauTHALBPv//Gnopk9Gq0GiYD0QPXxkTv3BIg2E+EAk8ZYWWqzkEIoGnbFLRXQ6B8PBHghzSc345BCKBp+zRUQE5BGLIANHEug9KS+UACAfvKavo0EJaXCDqeE/pYUMLaYGBaOE9pU+eModA+HhPybgPGoocAIH3lJSWyiMQFbyndOnZvxwCkcBTtugQ7BwCkcBT9qgQ02Qg/rbPFXtQyHBfpGixg42uoiAtAhCT5GpQWio/QDgpABGdEpqUljIZiGpyHmJTAm11Gg2EmxyIWAFtQFudJgPhJQdiUz4H0VanUUAcJgfClicwqALfKCD8xDz0FQkMqsA3CohhYiBaCsKoAt8oIJLPGDX5B1IFvlFAVNK2ELTVaTYQydMQsQGnCnyzgWgmBsKjtFSegGilbSGoAt9sINwOT+zSI+iIFP08qsBPqnK5XC5l0NZKUg/RQx9PmWirc/XmnXOtLhcThdK9p68GFwN1dvpqZ13WdmPn2enZ5aienjzZKGULxARdT4mswF++882L/46v9eno27vLeb39wwrRcJ8ZrcGzsoCGp2fxttNX9zMEooqvp8RU4C9vHX0aszr6ZhX0J9cYyW2LrelqeK+Xq/qXWrH2/S+f5/h/AfAgGpDSH9khPhcPiY0TbtPp4H5mQHCWHtDe06/Av/Mtj4ZLJrYyCGez3djgUiuy5rPNutFFa/882+J53rDveZ5tBRe5eReScBEB8RUfBx4SIhxASGCBaKPrKbXTUneOxlK9VyMR6J1rwtnvr2h1xtXeTHDhp4N3/pfQGKCBKEvGeDodRLzE06lUT0uZAIH3lJoV+Mv/HCulRIL9th09fqTbb46wHOgKiP3zlbUzaWGBuHcmH+TpzsxonCiaTgflLIDAe0q9CvzffxpD9He5l+hqPWLmar4zShggroFoBE3L8g66SCC+mip1RUR5oG4rJQIJRAJPqVOBv3o0BupID0LZPOXwXjvZwQSIGRCeb1lBDQkEgIfp9HdgHuREIIHAe0qdCvyb76E8vFjS/Lo/iRvvAio6wtoTTy/XQNiTlWpg4YBYh4zx9Ox8kEunoLbTQSltIPBHXGukpX4DxeHz14o/WtcAgl9jPoQHlBDh10BYvtc+wAGxMYAN8onaT4acZdpA4I+4hlfgP4Ly8OEXqj/qaAS0Nn8/ZgUcUBo8IJp+UMEBcQId5B3r/hSsjZSBwL8lA7zVCebhuyX9eUq8oSZ6CKUCXZKEp8AZEPawb+GAAOtsfQBvLJw0cEBUNRfqsiWdnYwH5XTBT4YJ7/g26NEzyZKkwQXC8jazBmJ6ptP4SapA4D0ltAL/LpCH/9zAYSgKTFVgWSgoQFjHF1cdX66sWy8zBUKPnlKaQOA9JbACf1WQfnj/j8dbd1+Ip4sHu8CJSpT96IuA6CACBGpva05AhHJZKQCB95SwCvxl7nrzzeVW1nVy4vPdmFU4FA10FzgFuNAnCUABImUgTp7cK5es0vrGE4DRHHx/2XjnRLwqSQ0IvKeEVeD/mZeMvH31v1dAvIlNF9Xz0Rk6sDmuCU1aS9edqQcIMRDPwhsW5eeKNeiGunEpPSASeEpQP/+KEx1uz/77EojHsaseXHyiD7vzW3oBQuBCmQDhZATEabwWRpaTPNuANL6fHhB4Twnb6nwvX0p8AeLD7Zhb9WV2sQLzBIEEiAoEoOT143wgnrO3c/lUIzPNS2E+Sw8IvKcEVeA/UmSe3p5HjJibrI5md6kNyS68hiatZZOBn3qA4APxnNeyNNDYqeAQMUgPCLynhKSlVuMB4kPMK3wcj7+W7Sd4ENdzDNzVkv3EagYPmJThWaQNnZ2rMtBEoIDAe0pIBf4jBQ/Wx3iu2ol+7NAGTAY/wXNSwjkmgwDBBUK0Ock1i6KSqCdMy/W0gMB7SlAF/nsFD9bDeK7aDpQrCF/tZh2tJ9h5F6TxBFoZOtkLQsSJqHEJhg4GiKbGXqD+VudWLEDcheQ/o6lpH5KIUAWId8rf2M4gQPCAKMO3JiW7VmzjnbSAwHtKSAV+rCbmO9AHb6uciadcRsbv98pQ84J0HlEtw+953jQwEDfeAW1nYIDAe0pABf5qbMJYwnxyC5BhWJF/twPmy1bmESA4QEjqpNk543tx4/XMgJhANwbUm47KGWML+MkVhWOsq3a3XKawrys3ztkECA4Q6zqNxTMGayLSAgLvKSFpqeiM8QHckT/K04qOCuKA2XNrysNgNgGCHeMzWWtgPvpCg4yAwHtKSAU+LkBYVk3uTWzFSpkNEExQ6cwjQHAqpiyNMR5Y/wcg8J6yrZ5qbkeBuAHvSV+eNBjKB5ANEMyQ96W/ZegsAhDSxicZAYH3lIAK/IfRLS2NnvTkJqIn/dIu74sNJXHQyepkxTI4C7EwQKA9JaQC/68RIP6g0ZM1uVs9lGUe40lrj8vQimzbwyksEHhPCUlLRT3lTZ2uHEpdZUv2x3e5/rAr/pnMtkdqR6+aBwTeU0Iq8N9GgNDqyp40wdGUGB+H7zebYhvqZvYCGPOAwHtKyFbn50gFpVZXdqW7ba5kd6vNn8nqYteRWYAwEAi8p4RU4KM9ZcxVNpQ5kKEqQDD/3plDgDAQCLSnBFXgZwaEI97daousrvD7ZhcgzAMC7ylBFfiZAcEmIlYEv6ghGvfhHAKEeUDgPSWoAj87IAIREIFwLdyFXZHq2x2MAwLvKUEV+BFT+VarK1tyIESW1hVPgB7/C2cZIMwDAu8pQZHlYxiIT1pd6csXMF1BgArEeLugK9J9/YtxQKA9ZRUUWaJ5iJ+h8xAV+YwyG15XcrdXuOjXswwQxgGB95SwM/D/HQHi1xo9aSsKLfjPUNiB5G63uetOP9P3Q5kGBN5Twg6GeIion+MsYvoAlFu8PQlHZkT73M9xCg0E3lPCzsCPHgOgYyLail0Sh7e75QTSu/2Qw/5hti+QMw0ItKcEnoG/FK2HuAOfMYaqR3l5u1tt+d3eYtedTrYBwjgg0vOUgsPG3mqcNii2CBVA5rzPju6BwndUWITSfsOkYUDgPSX0DPxoQcR4FdqRgfKUhh67u9VWlEVWmIVJ1gHCNCDwnhL6asbbY1SIcNW3bZf55o5q3WMz02PWAcI0IPCeEnwG/meMi4iZwxoodR6HlFM3HZtmOpkHCNOAQHtK+Bn4f4qdKgV6UqcNONeHTYSo91ZiyPQzDxCmAYH2lPAz8JfGqmf52Neb7EKeRWcyjCP18VCxqDLMPEAYBgTHUwK7pA0HKVpW+Zj9EszbTDZBFfGqF9I2QJ4p4wBhGBB4T6lxBn7YVsYPDrqIBjEgbo1Aw2TLBzcARZWsA4RhQKA9pc4Z+KEQ8YYxEF+OkopOGb8dAZ+pG2oHCMWZERkECMOAYD0l8AE2rVcz3rjigT21+OIoKZl/kJymHmgHCAVETuGBQHtK+Bn4s4UG55D7PWbF6vjw2HMoG9wa9BbINkCYBQTeU+q97nvpw3g8/hc7XfTiKQx7d6TxjbqSwX2JuMYpPBB4Twk9A//aV3IOuX8wiuW0qnssDrI5rIkY3OacA4RZQKA9JfQM/GttMY9923uRR2zW6ntcS3CskwsBDG59zgHCLCDQnrKOrcOcLS1Dwz/sByORNXR0sqWAwXXmHCDMAgLtKWFn4Ev0YDSBSH6KC2pwh/MNEEYBgfeU0K1OURbjEITDZHTL0ky8q39Gb74Bwigg8J4Se91VrhrGQ3BL19oCJrDufAOEUUCgPWUVeZ0g84SaL7iBCnChN98AYRQQaE/ZRF7HzzwJdKy+ZwV3u+6L4bMMEEYBAU7vJUtLcXLVAEHWLZ5O0lq6NMksQJgEBMdT2rAf2UNeZ1l2FzhdgBBz4bta4m05hCnOKRBNzXtL3Kd9jQ5yAY5y5MEIq+sHCL4TPbYICJ6nfI30lK+1ukiFBBQHQSJClRI5nKCnypwDgfaU0Ap8FBJwHPjhXxnlWnMNECYBgb5R/OQzcKXLZWLU0btXh/oBgmc8agREIk8JrsCXM7H9MvJOk9FLr2ZrfkYPcbNX5hogDAIC7ym9mBK87LRSc7c9b9vdrNiYyw8RN7s91wBhkNCecoFkr8UFuAhzTRGE9pSkfGpCoZOUiqck5VJoT0kiT0kiT0kqmGzylKSw6uQpSXIL0adOKfKMMSRPSQqJs+XXpF4psALylKSQOGlK8pQUIOZXFEAyzkFQWqrAcoK5FqKTFl09TG0qKbfam9CMQVLwkN2zjaTFluBohgPqmYImIAKtQ/xIOcdB9Cg+JSGKOFlsi09moDVnQVQPftiuVqv1hrcfzPsIV9ICqp3S2T2knAh2uleDOqooJhLEA00YhVELNGHQvndh1CMDQQrJIR5IYbnEAyksn3gghWQrefiR/GSRVFedBkmF98VSO/FZ0qRcSZqmPKYN76KpSjiQwtoW0uCRlyzmKqPmRY8GnUxG7zou0VBsrdVqm+6FanQiI4lEIpFIJBKJRCKRSCQSiZQj/Q/1awcdA/WKnQAAAABJRU5ErkJggg==;fontSize=12;" parent="LcAE4-p-ZAQXSCbZCqAu-1" vertex="1">
          <mxGeometry x="1294.02" y="197.25" width="113.88" height="44" as="geometry" />
        </mxCell>
        <mxCell id="g3JtSoTKQPr87EbilQ1k-8" value="Scoring" style="aspect=fixed;html=1;points=[];align=center;image;fontSize=12;image=img/lib/mscae/Databricks.svg;labelBackgroundColor=none;" parent="LcAE4-p-ZAQXSCbZCqAu-1" vertex="1">
          <mxGeometry x="1033.4" y="261.07000000000005" width="53.2" height="51.06" as="geometry" />
        </mxCell>
        <mxCell id="g3JtSoTKQPr87EbilQ1k-9" value="" style="shape=image;verticalLabelPosition=bottom;labelBackgroundColor=default;verticalAlign=top;aspect=fixed;imageAspect=0;image=data:image/png,iVBORw0KGgoAAAANSUhEUgAAAhAAAADMCAMAAAAVvWrGAAAABGdBTUEAALGPC/xhBQAAAAFzUkdCAK7OHOkAAAFHUExURQAAAEDP70DP3wCP3wAAAELO7wCc5gAAAEDH70DH5wCX3wCP3wAAAEDF70DF6gCV5ACV3wCP3wAAAETH60DH6wCT4wCT3wAAAEPJ7EDJ7EPG7ACT4gCT3wAAAEPM7wOW5AAAAELH7ACS4gCS3wAAAEPK7wKV4wAAAETI60LI60LG7ULG6wCU4QCS4QAAAETL7wKV4wAAAETH60LH6wCT4QAAAETJ7ULJ7wKU4gCU4gAAAEPI7ELI7AKT3wCT4QAAAEPK7ULK7EPI7QKV4gKU4gCV4gCU4gAAAEPH7EHH7ACT4QAAAEPJ7gGV4gCV4gGT4gCT4gAAAACU4UPK7kPK7AGU4gCU4gAAAEPK7UPJ7QGU4wGU4QCU4QAAAEPJ7kPJ7ULJ7UPI7QGV4gGU4gAAAEPJ7ULJ7QGU4gGT4gAAAEPJ7QGU4gAAADse0BIAAABqdFJOUwAQEBAQHx8fICAgICAwMDAwMDBAQEBAQFBQUFBQUF9fX2BgYGBvb29wcHBwcHBwf39/gICAgI+Pj4+PkJCQkJCfn5+fn5+fn6CgoKCvr6+vr6+wv7+/v7/Pz8/Pz8/f39/f39/f7+/v7+/H8IULAAAOsElEQVR42u2d7X/TyBHHlchNSeRSE7BD69A2FuWuhxPSIq4p1/raxg6t4chBUFJsUuBksGP7/3/dT8iDJe3T7EhyvdL8XsLKsXe/mv3t7GhlWSQSiUQikUgkEolEIpFIJBKJRCKRSKSF1Nra2ppN3UCyftnY+yEYTS4V9P297Sr1SkFlN/avUQhr5Neoc4qn6h6Xhi/apO4pHA7+RCKHOqhYcg5lOEz61EPF0oORlIdJi7qoUF5SHh7IQhRtughUPEwoI1Eg3VLzQBaiSDyMlDyQhaD5IipKSxEPZCGKKR/CwzH1U1G0C+Fh4lFHFWXCAPFAFqIwkhmI0XHH23bd7W4woY4qiFyxa9hemzVbo54qeIA4pjmCAsRMAeFAASKclaSkAwUIWmKSBDkp4oFyELSLRRLNGAH5B5oxqJSWdC6bw8MBdUtxVacAQQqrRQGCpLAQFCCKLCqDIYVVYYFoUK8UWE2aMUhhtWnGIIXVw2etq3FRb5ovG1846dBjXYuopycx/Vzr8ir+2Ys6pS8WUSfTmPSAYD1lAL20RauTHALBPv//Gnopk9Gq0GiYD0QPXxkTv3BIg2E+EAk8ZYWWqzkEIoGnbFLRXQ6B8PBHghzSc345BCKBp+zRUQE5BGLIANHEug9KS+UACAfvKavo0EJaXCDqeE/pYUMLaYGBaOE9pU+eModA+HhPybgPGoocAIH3lJSWyiMQFbyndOnZvxwCkcBTtugQ7BwCkcBT9qgQ02Qg/rbPFXtQyHBfpGixg42uoiAtAhCT5GpQWio/QDgpABGdEpqUljIZiGpyHmJTAm11Gg2EmxyIWAFtQFudJgPhJQdiUz4H0VanUUAcJgfClicwqALfKCD8xDz0FQkMqsA3CohhYiBaCsKoAt8oIJLPGDX5B1IFvlFAVNK2ELTVaTYQydMQsQGnCnyzgWgmBsKjtFSegGilbSGoAt9sINwOT+zSI+iIFP08qsBPqnK5XC5l0NZKUg/RQx9PmWirc/XmnXOtLhcThdK9p68GFwN1dvpqZ13WdmPn2enZ5aienjzZKGULxARdT4mswF++882L/46v9eno27vLeb39wwrRcJ8ZrcGzsoCGp2fxttNX9zMEooqvp8RU4C9vHX0aszr6ZhX0J9cYyW2LrelqeK+Xq/qXWrH2/S+f5/h/AfAgGpDSH9khPhcPiY0TbtPp4H5mQHCWHtDe06/Av/Mtj4ZLJrYyCGez3djgUiuy5rPNutFFa/882+J53rDveZ5tBRe5eReScBEB8RUfBx4SIhxASGCBaKPrKbXTUneOxlK9VyMR6J1rwtnvr2h1xtXeTHDhp4N3/pfQGKCBKEvGeDodRLzE06lUT0uZAIH3lJoV+Mv/HCulRIL9th09fqTbb46wHOgKiP3zlbUzaWGBuHcmH+TpzsxonCiaTgflLIDAe0q9CvzffxpD9He5l+hqPWLmar4zShggroFoBE3L8g66SCC+mip1RUR5oG4rJQIJRAJPqVOBv3o0BupID0LZPOXwXjvZwQSIGRCeb1lBDQkEgIfp9HdgHuREIIHAe0qdCvyb76E8vFjS/Lo/iRvvAio6wtoTTy/XQNiTlWpg4YBYh4zx9Ox8kEunoLbTQSltIPBHXGukpX4DxeHz14o/WtcAgl9jPoQHlBDh10BYvtc+wAGxMYAN8onaT4acZdpA4I+4hlfgP4Ly8OEXqj/qaAS0Nn8/ZgUcUBo8IJp+UMEBcQId5B3r/hSsjZSBwL8lA7zVCebhuyX9eUq8oSZ6CKUCXZKEp8AZEPawb+GAAOtsfQBvLJw0cEBUNRfqsiWdnYwH5XTBT4YJ7/g26NEzyZKkwQXC8jazBmJ6ptP4SapA4D0ltAL/LpCH/9zAYSgKTFVgWSgoQFjHF1cdX66sWy8zBUKPnlKaQOA9JbACf1WQfnj/j8dbd1+Ip4sHu8CJSpT96IuA6CACBGpva05AhHJZKQCB95SwCvxl7nrzzeVW1nVy4vPdmFU4FA10FzgFuNAnCUABImUgTp7cK5es0vrGE4DRHHx/2XjnRLwqSQ0IvKeEVeD/mZeMvH31v1dAvIlNF9Xz0Rk6sDmuCU1aS9edqQcIMRDPwhsW5eeKNeiGunEpPSASeEpQP/+KEx1uz/77EojHsaseXHyiD7vzW3oBQuBCmQDhZATEabwWRpaTPNuANL6fHhB4Twnb6nwvX0p8AeLD7Zhb9WV2sQLzBIEEiAoEoOT143wgnrO3c/lUIzPNS2E+Sw8IvKcEVeA/UmSe3p5HjJibrI5md6kNyS68hiatZZOBn3qA4APxnNeyNNDYqeAQMUgPCLynhKSlVuMB4kPMK3wcj7+W7Sd4ENdzDNzVkv3EagYPmJThWaQNnZ2rMtBEoIDAe0pIBf4jBQ/Wx3iu2ol+7NAGTAY/wXNSwjkmgwDBBUK0Ock1i6KSqCdMy/W0gMB7SlAF/nsFD9bDeK7aDpQrCF/tZh2tJ9h5F6TxBFoZOtkLQsSJqHEJhg4GiKbGXqD+VudWLEDcheQ/o6lpH5KIUAWId8rf2M4gQPCAKMO3JiW7VmzjnbSAwHtKSAV+rCbmO9AHb6uciadcRsbv98pQ84J0HlEtw+953jQwEDfeAW1nYIDAe0pABf5qbMJYwnxyC5BhWJF/twPmy1bmESA4QEjqpNk543tx4/XMgJhANwbUm47KGWML+MkVhWOsq3a3XKawrys3ztkECA4Q6zqNxTMGayLSAgLvKSFpqeiM8QHckT/K04qOCuKA2XNrysNgNgGCHeMzWWtgPvpCg4yAwHtKSAU+LkBYVk3uTWzFSpkNEExQ6cwjQHAqpiyNMR5Y/wcg8J6yrZ5qbkeBuAHvSV+eNBjKB5ANEMyQ96W/ZegsAhDSxicZAYH3lIAK/IfRLS2NnvTkJqIn/dIu74sNJXHQyepkxTI4C7EwQKA9JaQC/68RIP6g0ZM1uVs9lGUe40lrj8vQimzbwyksEHhPCUlLRT3lTZ2uHEpdZUv2x3e5/rAr/pnMtkdqR6+aBwTeU0Iq8N9GgNDqyp40wdGUGB+H7zebYhvqZvYCGPOAwHtKyFbn50gFpVZXdqW7ba5kd6vNn8nqYteRWYAwEAi8p4RU4KM9ZcxVNpQ5kKEqQDD/3plDgDAQCLSnBFXgZwaEI97daousrvD7ZhcgzAMC7ylBFfiZAcEmIlYEv6ghGvfhHAKEeUDgPSWoAj87IAIREIFwLdyFXZHq2x2MAwLvKUEV+BFT+VarK1tyIESW1hVPgB7/C2cZIMwDAu8pQZHlYxiIT1pd6csXMF1BgArEeLugK9J9/YtxQKA9ZRUUWaJ5iJ+h8xAV+YwyG15XcrdXuOjXswwQxgGB95SwM/D/HQHi1xo9aSsKLfjPUNiB5G63uetOP9P3Q5kGBN5Twg6GeIion+MsYvoAlFu8PQlHZkT73M9xCg0E3lPCzsCPHgOgYyLail0Sh7e75QTSu/2Qw/5hti+QMw0ItKcEnoG/FK2HuAOfMYaqR3l5u1tt+d3eYtedTrYBwjgg0vOUgsPG3mqcNii2CBVA5rzPju6BwndUWITSfsOkYUDgPSX0DPxoQcR4FdqRgfKUhh67u9VWlEVWmIVJ1gHCNCDwnhL6asbbY1SIcNW3bZf55o5q3WMz02PWAcI0IPCeEnwG/meMi4iZwxoodR6HlFM3HZtmOpkHCNOAQHtK+Bn4f4qdKgV6UqcNONeHTYSo91ZiyPQzDxCmAYH2lPAz8JfGqmf52Neb7EKeRWcyjCP18VCxqDLMPEAYBgTHUwK7pA0HKVpW+Zj9EszbTDZBFfGqF9I2QJ4p4wBhGBB4T6lxBn7YVsYPDrqIBjEgbo1Aw2TLBzcARZWsA4RhQKA9pc4Z+KEQ8YYxEF+OkopOGb8dAZ+pG2oHCMWZERkECMOAYD0l8AE2rVcz3rjigT21+OIoKZl/kJymHmgHCAVETuGBQHtK+Bn4s4UG55D7PWbF6vjw2HMoG9wa9BbINkCYBQTeU+q97nvpw3g8/hc7XfTiKQx7d6TxjbqSwX2JuMYpPBB4Twk9A//aV3IOuX8wiuW0qnssDrI5rIkY3OacA4RZQKA9JfQM/GttMY9923uRR2zW6ntcS3CskwsBDG59zgHCLCDQnrKOrcOcLS1Dwz/sByORNXR0sqWAwXXmHCDMAgLtKWFn4Ev0YDSBSH6KC2pwh/MNEEYBgfeU0K1OURbjEITDZHTL0ky8q39Gb74Bwigg8J4Se91VrhrGQ3BL19oCJrDufAOEUUCgPWUVeZ0g84SaL7iBCnChN98AYRQQaE/ZRF7HzzwJdKy+ZwV3u+6L4bMMEEYBAU7vJUtLcXLVAEHWLZ5O0lq6NMksQJgEBMdT2rAf2UNeZ1l2FzhdgBBz4bta4m05hCnOKRBNzXtL3Kd9jQ5yAY5y5MEIq+sHCL4TPbYICJ6nfI30lK+1ukiFBBQHQSJClRI5nKCnypwDgfaU0Ap8FBJwHPjhXxnlWnMNECYBgb5R/OQzcKXLZWLU0btXh/oBgmc8agREIk8JrsCXM7H9MvJOk9FLr2ZrfkYPcbNX5hogDAIC7ym9mBK87LRSc7c9b9vdrNiYyw8RN7s91wBhkNCecoFkr8UFuAhzTRGE9pSkfGpCoZOUiqck5VJoT0kiT0kiT0kqmGzylKSw6uQpSXIL0adOKfKMMSRPSQqJs+XXpF4psALylKSQOGlK8pQUIOZXFEAyzkFQWqrAcoK5FqKTFl09TG0qKbfam9CMQVLwkN2zjaTFluBohgPqmYImIAKtQ/xIOcdB9Cg+JSGKOFlsi09moDVnQVQPftiuVqv1hrcfzPsIV9ICqp3S2T2knAh2uleDOqooJhLEA00YhVELNGHQvndh1CMDQQrJIR5IYbnEAyksn3gghWQrefiR/GSRVFedBkmF98VSO/FZ0qRcSZqmPKYN76KpSjiQwtoW0uCRlyzmKqPmRY8GnUxG7zou0VBsrdVqm+6FanQiI4lEIpFIJBKJRCKRSCQSiZQj/Q/1awcdA/WKnQAAAABJRU5ErkJggg==;fontSize=16;" parent="LcAE4-p-ZAQXSCbZCqAu-1" vertex="1">
          <mxGeometry x="774.4" y="356.68" width="113.88" height="44" as="geometry" />
        </mxCell>
        <mxCell id="g3JtSoTKQPr87EbilQ1k-11" value="Alerts" style="image;sketch=0;aspect=fixed;html=1;points=[];align=center;fontSize=12;image=img/lib/mscae/Notification.svg;labelBackgroundColor=none;" parent="LcAE4-p-ZAQXSCbZCqAu-1" vertex="1">
          <mxGeometry x="1325.96" y="300" width="50" height="50" as="geometry" />
        </mxCell>
        <mxCell id="g3JtSoTKQPr87EbilQ1k-12" value="" style="endArrow=classic;html=1;strokeWidth=2;strokeColor=#00994D;labelBackgroundColor=none;exitX=0.5;exitY=0;exitDx=0;exitDy=0;" parent="LcAE4-p-ZAQXSCbZCqAu-1" source="I6eMV21CClMDfW5IqpgD-26" target="I6eMV21CClMDfW5IqpgD-42" edge="1">
          <mxGeometry width="50" height="50" relative="1" as="geometry">
            <mxPoint x="446" y="297" as="sourcePoint" />
            <mxPoint x="525" y="297" as="targetPoint" />
            <Array as="points" />
          </mxGeometry>
        </mxCell>
        <mxCell id="g3JtSoTKQPr87EbilQ1k-14" value="" style="endArrow=classic;html=1;strokeWidth=2;strokeColor=#00994D;labelBackgroundColor=none;" parent="LcAE4-p-ZAQXSCbZCqAu-1" source="I6eMV21CClMDfW5IqpgD-42" target="ZDExjNXOHXiOzqUr32MD-0" edge="1">
          <mxGeometry width="50" height="50" relative="1" as="geometry">
            <mxPoint x="466" y="317" as="sourcePoint" />
            <mxPoint x="1310.96" y="396.2500000000002" as="targetPoint" />
            <Array as="points">
              <mxPoint x="1272" y="421" />
            </Array>
          </mxGeometry>
        </mxCell>
        <mxCell id="ZDExjNXOHXiOzqUr32MD-0" value="Dashboard" style="sketch=0;pointerEvents=1;shadow=0;dashed=0;html=1;strokeColor=none;fillColor=#232F3D;aspect=fixed;labelPosition=center;verticalLabelPosition=bottom;verticalAlign=top;align=center;outlineConnect=0;shape=mxgraph.vvd.nsx_dashboard;" vertex="1" parent="LcAE4-p-ZAQXSCbZCqAu-1">
          <mxGeometry x="1317.01" y="388.99" width="67.9" height="63.15" as="geometry" />
        </mxCell>
        <mxCell id="ZDExjNXOHXiOzqUr32MD-1" value="" style="endArrow=classic;html=1;strokeWidth=2;strokeColor=#00994D;labelBackgroundColor=none;entryX=0.5;entryY=0;entryDx=0;entryDy=0;" edge="1" parent="LcAE4-p-ZAQXSCbZCqAu-1" source="gEyKVkVUw-G5Uj5i3CAT-11" target="I6eMV21CClMDfW5IqpgD-13">
          <mxGeometry width="50" height="50" relative="1" as="geometry">
            <mxPoint x="446" y="297" as="sourcePoint" />
            <mxPoint x="525" y="297" as="targetPoint" />
            <Array as="points" />
          </mxGeometry>
        </mxCell>
      </root>
    </mxGraphModel>
  </diagram>
</mxfile>
